<svg xmlns="http://www.w3.org/2000/svg" viewBox="0 0 1920 1080">
  <rect width="1920" height="1080" fill="#000"/>
  <!-- Flowing organic lines pattern based on the provided image -->
  <g fill="none" stroke="#ffffff" stroke-width="1" opacity="0.1">
    <!-- Flowing topographic-like lines -->
    <path d="M0,300 Q200,250 400,300 T800,350 T1200,300 T1600,350 T1920,300"/>
    <path d="M0,320 Q200,270 400,320 T800,370 T1200,320 T1600,370 T1920,320"/>
    <path d="M0,340 Q200,290 400,340 T800,390 T1200,340 T1600,390 T1920,340"/>

    <path d="M0,500 Q300,450 600,500 T1200,550 T1920,500"/>
    <path d="M0,520 Q300,470 600,520 T1200,570 T1920,520"/>
    <path d="M0,540 Q300,490 600,540 T1200,590 T1920,540"/>

    <path d="M0,700 Q150,650 300,700 T600,750 T900,700 T1200,750 T1500,700 T1920,750"/>
    <path d="M0,720 Q150,670 300,720 T600,770 T900,720 T1200,770 T1500,720 T1920,770"/>

    <!-- Vertical flowing lines -->
    <path d="M200,0 Q150,200 200,400 T250,800 T200,1080"/>
    <path d="M220,0 Q170,200 220,400 T270,800 T220,1080"/>

    <path d="M600,0 Q550,150 600,300 T650,600 T600,900 T650,1080"/>
    <path d="M620,0 Q570,150 620,300 T670,600 T620,900 T670,1080"/>

    <path d="M1000,0 Q950,100 1000,200 T1050,400 T1000,600 T1050,800 T1000,1080"/>
    <path d="M1020,0 Q970,100 1020,200 T1070,400 T1020,600 T1070,800 T1020,1080"/>

    <path d="M1400,0 Q1350,250 1400,500 T1450,1080"/>
    <path d="M1420,0 Q1370,250 1420,500 T1470,1080"/>

    <!-- Curved organic shapes -->
    <path d="M0,100 Q100,50 200,100 Q300,150 400,100 Q500,50 600,100"/>
    <path d="M600,150 Q700,100 800,150 Q900,200 1000,150 Q1100,100 1200,150"/>
    <path d="M1200,200 Q1300,150 1400,200 Q1500,250 1600,200 Q1700,150 1800,200"/>

    <!-- Complex flowing patterns -->
    <path d="M0,900 C200,850 400,950 600,900 C800,850 1000,950 1200,900 C1400,850 1600,950 1920,900"/>
    <path d="M0,920 C200,870 400,970 600,920 C800,870 1000,970 1200,920 C1400,870 1600,970 1920,920"/>
  </g>

  <!-- Additional subtle texture -->
  <g fill="none" stroke="#ffffff" stroke-width="0.5" opacity="0.05">
    <path d="M0,200 Q50,180 100,200 T200,220 T300,200 T400,220 T500,200 T600,220 T700,200 T800,220 T900,200 T1000,220 T1100,200 T1200,220 T1300,200 T1400,220 T1500,200 T1600,220 T1700,200 T1800,220 T1920,200"/>
    <path d="M0,600 Q50,580 100,600 T200,620 T300,600 T400,620 T500,600 T600,620 T700,600 T800,620 T900,600 T1000,620 T1100,600 T1200,620 T1300,600 T1400,620 T1500,600 T1600,620 T1700,600 T1800,620 T1920,600"/>
    <path d="M0,800 Q50,780 100,800 T200,820 T300,800 T400,820 T500,800 T600,820 T700,800 T800,820 T900,800 T1000,820 T1100,800 T1200,820 T1300,800 T1400,820 T1500,800 T1600,820 T1700,800 T1800,820 T1920,800"/>
  </g>
</svg>