<svg width="253" height="253" viewBox="0 0 253 253" fill="none" xmlns="http://www.w3.org/2000/svg">
<path d="M84.3333 231.916C90.1553 231.916 94.875 227.197 94.875 221.375C94.875 215.553 90.1553 210.833 84.3333 210.833C78.5113 210.833 73.7916 215.553 73.7916 221.375C73.7916 227.197 78.5113 231.916 84.3333 231.916Z" stroke="black" stroke-width="10" stroke-linecap="round" stroke-linejoin="round"/>
<path d="M200.292 231.916C206.114 231.916 210.833 227.197 210.833 221.375C210.833 215.553 206.114 210.833 200.292 210.833C194.47 210.833 189.75 215.553 189.75 221.375C189.75 227.197 194.47 231.916 200.292 231.916Z" stroke="black" stroke-width="10" stroke-linecap="round" stroke-linejoin="round"/>
<path d="M21.6105 21.6104H42.6938L70.7346 152.538C71.7633 157.333 74.4313 161.619 78.2794 164.659C82.1276 167.699 86.9151 169.303 91.818 169.194H194.915C199.714 169.186 204.366 167.542 208.103 164.533C211.841 161.523 214.44 157.329 215.472 152.643L232.865 74.3187H53.9734" stroke="black" stroke-width="15" stroke-linecap="round" stroke-linejoin="round"/>
</svg>
